<?xml version="1.0" encoding="UTF-8" standalone="no"?>
<svg
   xmlns:dc="http://purl.org/dc/elements/1.1/"
   xmlns:cc="http://creativecommons.org/ns#"
   xmlns:rdf="http://www.w3.org/1999/02/22-rdf-syntax-ns#"
   xmlns:svg="http://www.w3.org/2000/svg"
   xmlns="http://www.w3.org/2000/svg"
   width="200"
   height="200"
   viewBox="0 0 1000 1000"
   version="1.1"
   id="svg8">
  <defs
     id="defs2" />
  <metadata
     id="metadata5">
    <rdf:RDF>
      <cc:Work
         rdf:about="">
        <dc:format>image/svg+xml</dc:format>
        <dc:type
           rdf:resource="http://purl.org/dc/dcmitype/StillImage" />
        <dc:title></dc:title>
      </cc:Work>
    </rdf:RDF>
  </metadata>
  <g
     style="fill:#ffffff"
     transform="rotate(-9.177966,-4270.7409,888.6798)"
     id="g883" />
  <g
     style="fill:#ffffff"
     transform="rotate(27.340236,2080.7862,835.0114)"
     id="g887" />
  <g
     style="fill:#ffff00"
     id="g891"
     transform="rotate(63.481056,1125.1107,841.4684)" />
  <g
     transform="matrix(0.91879614,0,0,0.91879614,46.529101,45.38691)"
     id="g110">
    <g
       id="g895"
       transform="matrix(-0.28151914,0.95955561,0.95955561,0.28151914,-538.86528,-366.28116)"
       style="fill:#1a1a1a">
      <path
         style="fill:#ffffff;fill-opacity:1;stroke-width:2.18455005"
         d="M 731.93555,99.441406 C 583.55962,170.68204 546.00875,316.36579 529.70312,404.36719 575.35617,296.51148 576.31511,243.27526 731.93555,99.441406 Z m -152.15039,1.015624 c -2.85436,0.0257 -6.18006,1.29724 -9.81641,4.42969 -7.89536,6.80132 -47.97221,84.12248 -58.55469,136.50781 -8.98078,44.4574 -13.29352,87.46596 -9.26758,136.78906 3.36737,37.9414 4.55025,36.89881 5.03711,16.97461 1.54277,-63.1324 10.8322,-162.31502 58.37891,-238.32812 11.70313,-18.70963 24.40326,-35.66187 24.46094,-44.9668 0.034,-5.4846 -3.9587,-11.46277 -10.23828,-11.40625 z m -245.27735,25.61719 c -8.07523,-0.22837 -11.52416,7.64138 -10.05859,13.69922 2.18796,9.04426 18.43484,22.63345 34.11328,38.16406 63.69742,63.09757 95.46158,157.51573 111.42773,218.61523 5.03873,19.2827 6.42867,20.02587 1.01368,-17.67773 -7.38168,-48.9332 -21.43383,-89.80809 -40.36133,-131.02539 -22.30304,-48.56736 -79.02793,-114.65136 -88.27149,-119.46289 -2.98012,-1.55119 -5.60221,-2.24856 -7.86328,-2.3125 z M 167.22852,191.01758 C 360.22677,278.52509 377.90133,328.74953 455.19727,416.74023 412.00799,338.35143 330.48988,211.90696 167.22852,191.01758 Z m 611.83593,20.80859 c -0.85105,-0.0177 -1.75471,0.0137 -2.71093,0.0977 -10.38098,0.91105 -88.06413,40.27965 -127.24414,76.62695 -33.2505,30.84671 -61.86569,63.24307 -87.39844,105.63477 -19.42125,32.7674 -17.85178,32.611 -5.82227,16.7207 38.11702,-50.3504 103.57191,-125.44467 186.55664,-159.38867 20.42571,-8.3549 40.63699,-14.70057 46.11719,-22.2207 4.40486,-6.04432 3.26774,-17.20562 -9.49805,-17.47071 z m -607.42773,85.79297 c -1.19989,-0.0233 -2.13344,0.0237 -2.77344,0.14453 -15.09185,2.8492 -13.31722,15.0946 -7.04883,20.0293 7.31133,5.7559 28.48539,6.39275 50.41016,8.90625 89.07512,10.2123 172.41431,64.78375 222.73828,102.93555 15.88193,12.0406 17.43361,11.76686 -10.13281,-14.51954 -36.05498,-33.8968 -72.36916,-57.33725 -112.72852,-78.03125 -44.58434,-22.86 -122.46646,-39.11505 -140.46484,-39.46484 z m 680.31445,7.04883 c -131.56069,-0.80673 -227.58531,79.14612 -284.45703,132.98242 100.4073,-60.2943 132.52924,-102.75756 343.00391,-127.38086 -20.23436,-3.72317 -39.75249,-5.48631 -58.54688,-5.60156 z m -628.02344,93.34961 c -48.27141,0.0126 -99.81975,10.24923 -152.210933,37.70703 208.321093,-38.8357 251.581483,-7.79493 365.343753,20.04687 -51.4461,-25.31109 -127.08378,-57.77629 -213.13282,-57.7539 z m 530.46289,17.69336 c -5.46902,0.0414 -10.7453,0.24421 -15.74023,0.63672 -45.21602,3.55331 -87.75707,11.19812 -134.08594,28.59375 -35.56395,13.64165 -34.23748,14.49293 -14.94336,9.49804 61.13575,-15.82666 159.06447,-34.08944 245.20118,-9.20703 21.20152,6.12453 40.98507,13.69126 49.94921,11.19531 7.68537,-2.13972 14.04126,-12.75749 1.21094,-21.19921 -7.88936,-5.1909 -78.72452,-19.91807 -131.5918,-19.51758 z m -423.54296,50.47461 c -22.53789,0.16768 -44.58022,1.99795 -67.0625,4.96875 -52.98301,7.0013 -132.84628,41.73499 -140.16797,49.15039 -10.7908,10.9289 -2.36488,19.99012 5.59765,20.48242 9.28736,0.5742 27.06237,-10.94576 46.52344,-21.35156 79.06576,-42.2761 178.65083,-44.8096 241.74219,-42.0625 19.91128,0.867 21.03139,-0.24214 -16.59375,-6.17774 -24.46789,-3.68255 -47.50118,-5.17745 -70.03906,-5.00976 z m 301.42187,13.2832 c -20.34495,-0.14849 -39.23867,0.71507 -55.98437,1.80469 115.76544,17.7597 167.60507,5.61166 345.25976,121.13086 C 835.82108,499.76182 720.43099,480.1122 632.26953,479.46875 Z m -196.89258,19.59766 c -88.33426,14.3933 -234.79664,48.77616 -309.23828,195.57226 147.1749,-152.4646 200.41804,-152.26906 309.23828,-195.57226 z m 131.39258,3.8457 c -2.13764,0.0267 2.62212,2.2605 11.86133,5.99414 58.55093,23.66117 148.12074,67.26036 202.53906,138.51563 13.39441,17.53864 24.79294,35.39225 33.48242,38.7207 7.44979,2.85377 18.87572,-1.89898 13.58789,-16.31836 -3.58779,-9.78377 -61.85972,-74.50514 -107.16992,-102.8457 -38.45317,-24.05138 -77.19256,-43.22351 -124.77734,-56.8125 -18.34973,-5.09999 -27.3858,-7.28063 -29.52344,-7.25391 z m -20.02734,14.10351 c 81.64601,83.9703 130.32597,105.53591 202.40039,304.8125 -7.99848,-164.39789 -127.64706,-255.598 -202.40039,-304.8125 z m -104.38281,1.79883 c -1.40035,-0.068 -9.85293,3.63706 -28.05665,12.47461 -44.36393,21.9271 -79.02208,47.75388 -112.52148,78.33008 -39.47316,36.029 -85.15062,110.17767 -86.91992,120.44727 -2.60762,15.1354 9.48385,17.75482 16.29883,13.60742 7.94891,-4.8373 15.94974,-24.44933 25.9707,-44.11133 40.71281,-79.8821 120.97884,-138.88175 174.31836,-172.68945 7.89079,-5.00133 12.14575,-7.99862 10.91016,-8.0586 z m 87.96484,13.58399 c -0.61175,0.16837 1.8981,4.62507 6.5,12.03125 33.32928,53.63974 79.9508,141.67449 81.87305,231.3125 0.47312,22.06333 -0.85316,43.20481 4.20117,51.01758 4.33315,6.6983 16.36185,9.5992 20.5957,-5.16407 2.8728,-10.01705 -6.01393,-96.65206 -25.89062,-146.26172 -16.86879,-42.10176 -36.84614,-80.43248 -67.25977,-119.4707 -13.28721,-16.80834 -19.233,-23.68133 -20.01953,-23.46484 z m -24.10742,2.4707 c 18.90031,115.5849 46.47918,161.12952 -8.45703,365.79492 87.522,-139.3935 41.59488,-282.65632 8.45703,-365.79492 z m -44.79688,0.32227 C 397.77879,598.1193 298.35443,711.02826 322.77539,873.79883 354.33916,664.25254 397.84118,633.55182 461.41992,535.19141 Z m 21.29297,5.80664 c -0.81239,-0.0742 -5.45125,7.74084 -15.5625,26.63086 -23.04432,43.79419 -35.9419,85.04832 -45.11328,129.46679 -10.80663,52.33946 -4.26012,139.18258 0.33594,148.53516 6.7736,13.78397 18.10294,8.80531 21.18554,1.44726 3.59572,-8.58232 -1.4418,-29.1567 -4.87109,-50.95703 -13.93227,-88.56952 16.41547,-183.45171 39.75195,-242.13281 3.22217,-8.10226 4.9053,-12.9325 4.27344,-12.99023 z"
         transform="matrix(-0.28151914,0.95955561,0.95955561,0.28151914,199.76625,620.18636)"
         id="path893" />
    </g>
    <path
       id="path969"
       style="opacity:1;fill:#ffffff;fill-opacity:1;stroke:none;stroke-width:0.739622;stroke-linecap:round;stroke-linejoin:round;stroke-miterlimit:4;stroke-dasharray:none;stroke-dashoffset:0;stroke-opacity:1;paint-order:stroke fill markers"
       d="m 692.57717,776.22 c -0.1617,0.1525 -11.16981,-6.2552 -11.39025,-6.2269 -0.22044,0.028 -9.25311,9.0087 -9.44808,8.902 -0.19497,-0.1067 2.4974,-12.5561 2.40236,-12.757 -0.095,-0.2009 -11.42715,-6.0164 -11.38595,-6.2348 0.0412,-0.2184 12.7133,-1.5048 12.875,-1.6573 0.16171,-0.1525 2.19074,-12.727 2.41118,-12.7553 0.22044,-0.028 5.35985,11.626 5.55482,11.7327 0.19497,0.1066 12.78111,-1.8494 12.87614,-1.6485 0.095,0.2009 -9.40072,8.6902 -9.44193,8.9086 -0.0412,0.2184 5.70842,11.584 5.54671,11.7365 z m 63.15008,-92.6994 c -0.14148,0.1334 -9.77301,-5.473 -9.96589,-5.4483 -0.19287,0.025 -8.09599,7.8822 -8.26658,7.7889 -0.17059,-0.093 2.18509,-10.986 2.10195,-11.1618 -0.0831,-0.1757 -9.99818,-5.264 -9.96212,-5.4551 0.0361,-0.1911 11.12347,-1.3167 11.26496,-1.4501 0.14148,-0.1334 1.91678,-11.1355 2.10965,-11.1602 0.19287,-0.025 4.68959,10.1721 4.86018,10.2655 0.17059,0.093 11.18281,-1.6181 11.26596,-1.4423 0.0832,0.1758 -8.22515,7.6034 -8.2612,7.7945 -0.036,0.1911 4.99457,10.1355 4.85309,10.2689 z m 41.34027,-525.38669 c -0.14148,0.1334 -9.77301,-5.47299 -9.96588,-5.44823 -0.19288,0.0248 -8.096,7.88215 -8.26659,7.78882 -0.17059,-0.0933 2.1851,-10.98594 2.10195,-11.16172 -0.0832,-0.17578 -9.99818,-5.26403 -9.96212,-5.45511 0.0361,-0.19108 11.12347,-1.31669 11.26496,-1.45009 0.14148,-0.1334 1.91678,-11.1355 2.10965,-11.16026 0.19288,-0.0248 4.68959,10.17217 4.86019,10.26551 0.17059,0.0933 11.1828,-1.61809 11.26595,-1.44231 0.0831,0.17578 -8.22515,7.60344 -8.2612,7.79452 -0.0361,0.19109 4.99457,10.13547 4.85309,10.26887 z m -462.95,59.91439 c -0.10811,0.10194 -7.46828,-4.18232 -7.61566,-4.1634 -0.14739,0.0189 -6.18675,6.02334 -6.31711,5.95201 -0.13036,-0.0713 1.66979,-8.39516 1.60625,-8.52949 -0.0635,-0.13433 -7.64034,-4.02263 -7.61279,-4.16865 0.0276,-0.14602 8.50027,-1.00618 8.60839,-1.10812 0.10811,-0.10194 1.46475,-8.50946 1.61214,-8.52838 0.14739,-0.0189 3.58366,7.77331 3.71402,7.84463 0.13036,0.0713 8.54561,-1.2365 8.60915,-1.10217 0.0635,0.13433 -6.28544,5.81035 -6.31299,5.95637 -0.0276,0.14602 3.81672,7.74526 3.7086,7.8472 z m 268.07616,-42.0207 c -0.11049,0.10417 -7.63181,-4.27389 -7.78242,-4.25455 -0.15062,0.0193 -6.32221,6.15522 -6.45543,6.08233 -0.13321,-0.0729 1.70636,-8.57898 1.64143,-8.71625 -0.0649,-0.13727 -7.80764,-4.11071 -7.77948,-4.25993 0.0281,-0.14922 8.68639,-1.02821 8.79687,-1.13238 0.11049,-0.10418 1.49683,-8.69578 1.64744,-8.71512 0.15062,-0.0193 3.66213,7.94351 3.79535,8.0164 0.13321,0.0729 8.73272,-1.26358 8.79765,-1.12631 0.0649,0.13727 -6.42307,5.93758 -6.45122,6.08679 -0.0281,0.14922 3.90029,7.91485 3.78981,8.01902 z m 35.45352,96.5568 c -0.1197,0.1129 -8.26831,-4.6303 -8.43149,-4.6094 -0.16318,0.021 -6.84949,6.6686 -6.99382,6.5897 -0.14433,-0.079 1.84867,-9.2945 1.77832,-9.4432 -0.0704,-0.1488 -8.45881,-4.4536 -8.4283,-4.6153 0.0305,-0.1616 9.41085,-1.1139 9.53055,-1.2268 0.1197,-0.1128 1.62167,-9.421 1.78484,-9.442 0.16318,-0.021 3.96756,8.6061 4.11189,8.685 0.14432,0.079 9.46105,-1.3689 9.5314,-1.2202 0.0703,0.1487 -6.95877,6.4328 -6.98927,6.5944 -0.0305,0.1617 4.22558,8.575 4.10588,8.6878 z m 104.34837,25.5061 c -0.0828,0.078 -5.72227,-3.2046 -5.8352,-3.1901 -0.11293,0.014 -4.74035,4.6152 -4.84023,4.5605 -0.0999,-0.055 1.27941,-6.4324 1.23073,-6.5354 -0.0487,-0.1029 -5.85411,-3.0821 -5.833,-3.194 0.0211,-0.1119 6.51299,-0.771 6.59583,-0.8491 0.0828,-0.078 1.12231,-6.52 1.23524,-6.5345 0.11293,-0.014 2.74584,5.956 2.84573,6.0106 0.0999,0.055 6.54773,-0.9474 6.59641,-0.8445 0.0487,0.103 -4.81597,4.452 -4.83708,4.5639 -0.0211,0.1119 2.92441,5.9345 2.84157,6.0126 z m 5.63598,96.562 c -0.12891,0.1215 -8.90482,-4.9868 -9.08056,-4.9643 -0.17574,0.023 -7.37678,7.182 -7.53222,7.0969 -0.15544,-0.085 1.99098,-10.01 1.91522,-10.1701 -0.0758,-0.1602 -9.10998,-4.7964 -9.07713,-4.9706 0.0329,-0.1741 10.13531,-1.1997 10.26423,-1.3212 0.12891,-0.1216 1.74651,-10.1463 1.92224,-10.1689 0.17574,-0.023 4.27299,9.2686 4.42843,9.3536 0.15544,0.085 10.18938,-1.4743 10.26514,-1.3142 0.0758,0.1602 -7.49446,6.928 -7.52731,7.1021 -0.0329,0.1741 4.55088,9.2351 4.42196,9.3567 z m -37.57607,460.61 c -0.12966,0.1222 -8.95674,-5.0159 -9.1335,-4.9932 -0.17677,0.023 -7.4198,7.2238 -7.57614,7.1383 -0.15634,-0.086 2.00259,-10.0684 1.92638,-10.2295 -0.0762,-0.1611 -9.16309,-4.8244 -9.13005,-4.9995 0.033,-0.1751 10.19441,-1.2067 10.32408,-1.329 0.12966,-0.1222 1.75669,-10.2054 1.93345,-10.2281 0.17676,-0.023 4.2979,9.3226 4.45425,9.4081 0.15634,0.086 10.24879,-1.4829 10.32499,-1.3218 0.0762,0.1611 -7.53816,6.9684 -7.5712,7.1435 -0.033,0.1751 4.57741,9.2889 4.44774,9.4112 z m 3.68664,-231.7483 c -0.10588,0.1 -7.31355,-4.0956 -7.45788,-4.0771 -0.14434,0.019 -6.05857,5.8985 -6.18623,5.8287 -0.12766,-0.07 1.6352,-8.2212 1.57298,-8.3528 -0.0622,-0.1315 -7.48205,-3.9393 -7.45507,-4.0823 0.027,-0.143 8.32416,-0.9853 8.43003,-1.0851 0.10588,-0.1 1.43441,-8.3332 1.57875,-8.3517 0.14433,-0.018 3.50941,7.6122 3.63707,7.6821 0.12766,0.07 8.36856,-1.2109 8.43078,-1.0794 0.0622,0.1316 -6.15522,5.69 -6.1822,5.833 -0.027,0.143 3.73765,7.5848 3.63177,7.6846 z m 192.4191,-96.3736 c -0.21316,0.201 -14.72389,-8.2455 -15.01447,-8.2082 -0.29057,0.037 -12.19731,11.8751 -12.45432,11.7345 -0.25701,-0.1406 3.29204,-16.5512 3.16676,-16.8161 -0.12527,-0.2648 -15.0631,-7.9307 -15.00879,-8.2186 0.0543,-0.2878 16.75848,-1.9837 16.97164,-2.1846 0.21315,-0.201 2.8878,-16.7766 3.17837,-16.8139 0.29058,-0.037 7.06528,15.3252 7.32229,15.4658 0.25701,0.1407 16.84786,-2.4378 16.97314,-2.1729 0.12527,0.2648 -12.3919,11.4552 -12.44622,11.7431 -0.0543,0.2879 7.52476,15.27 7.3116,15.4709 z M 88.040775,496.4793 c -0.121936,0.115 -8.422758,-4.7168 -8.588983,-4.6955 -0.166225,0.021 -6.977437,6.7932 -7.124459,6.7127 -0.147021,-0.08 1.883199,-9.4681 1.811538,-9.6196 -0.07166,-0.1515 -8.616808,-4.5367 -8.585737,-4.7014 0.03107,-0.1647 9.586638,-1.1348 9.708574,-1.2497 0.121936,-0.115 1.651957,-9.597 1.818182,-9.6184 0.166225,-0.021 4.04167,8.7668 4.188692,8.8472 0.147021,0.081 9.637774,-1.3945 9.709435,-1.243 0.07166,0.1515 -7.088749,6.5529 -7.119821,6.7176 -0.03107,0.1647 4.304515,8.7352 4.182579,8.8501 z m 131.050635,51.6913 c -0.11048,0.1042 -7.6318,-4.2739 -7.78242,-4.2545 -0.15061,0.019 -6.32221,6.1552 -6.45542,6.0823 -0.13322,-0.073 1.70635,-8.579 1.64142,-8.7163 -0.0649,-0.1372 -7.80763,-4.1107 -7.77948,-4.2599 0.0282,-0.1492 8.68639,-1.0282 8.79688,-1.1324 0.11048,-0.1042 1.49682,-8.6958 1.64744,-8.7151 0.15061,-0.019 3.66213,7.9435 3.79534,8.0164 0.13322,0.073 8.73273,-1.2636 8.79766,-1.1263 0.0649,0.1373 -6.42307,5.9376 -6.45122,6.0868 -0.0282,0.1492 3.90029,7.9148 3.7898,8.019 z m -49.84054,208.957 c -0.1597,0.1506 -11.03098,-6.1775 -11.24868,-6.1495 -0.2177,0.028 -9.1381,8.8967 -9.33065,8.7914 -0.19255,-0.1054 2.46636,-12.4001 2.37251,-12.5985 -0.0939,-0.1984 -11.28513,-5.9416 -11.24443,-6.1573 0.0407,-0.2156 12.55527,-1.4861 12.71497,-1.6367 0.15969,-0.1506 2.1635,-12.5689 2.3812,-12.5968 0.2177,-0.028 5.29323,11.4815 5.48578,11.5869 0.19255,0.1053 12.62224,-1.8264 12.7161,-1.628 0.0939,0.1984 -9.28388,8.5822 -9.32458,8.7978 -0.0407,0.2157 5.63747,11.4401 5.47778,11.5907 z m 149.49122,-65.0417 c -0.10588,0.1 -7.31355,-4.0957 -7.45788,-4.0772 -0.14434,0.019 -6.05857,5.8986 -6.18623,5.8287 -0.12766,-0.07 1.6352,-8.2212 1.57297,-8.3527 -0.0622,-0.1316 -7.48204,-3.9393 -7.45506,-4.0823 0.027,-0.143 8.32416,-0.9854 8.43003,-1.0852 0.10588,-0.1 1.43441,-8.3331 1.57875,-8.3517 0.14433,-0.019 3.50941,7.6123 3.63707,7.6821 0.12766,0.07 8.36856,-1.2108 8.43078,-1.0793 0.0622,0.1315 -6.15522,5.69 -6.1822,5.833 -0.027,0.143 3.73765,7.5848 3.63177,7.6846 z M 496.5679,793.568 c -0.1243,0.1172 -8.58656,-4.8086 -8.75602,-4.7868 -0.16946,0.022 -7.11314,6.9252 -7.26302,6.8432 -0.14988,-0.082 1.91982,-9.6522 1.84677,-9.8067 -0.0731,-0.1544 -8.7844,-4.6249 -8.75272,-4.7928 0.0317,-0.1679 9.77308,-1.1569 9.89739,-1.2741 0.12431,-0.1172 1.68409,-9.7836 1.85355,-9.8054 0.16945,-0.022 4.12027,8.9373 4.27015,9.0193 0.14988,0.082 9.82522,-1.4217 9.89827,-1.2672 0.0731,0.1544 -7.22661,6.6804 -7.25829,6.8482 -0.0317,0.1679 4.38823,8.9051 4.26392,9.0223 z m 96.36868,74.5592 c -0.2106,0.1985 -14.54686,-8.1464 -14.83395,-8.1096 -0.28708,0.037 -12.05066,11.7324 -12.30458,11.5935 -0.25392,-0.139 3.25245,-16.3523 3.12869,-16.6139 -0.12377,-0.2617 -14.882,-7.8354 -14.82834,-8.1198 0.0537,-0.2844 16.55699,-1.9599 16.76758,-2.1584 0.2106,-0.1986 2.85308,-16.5749 3.14017,-16.6118 0.28708,-0.037 6.98032,15.141 7.23424,15.28 0.25392,0.1389 16.6453,-2.4085 16.76907,-2.1469 0.12376,0.2617 -12.24291,11.3175 -12.29657,11.602 -0.0537,0.2844 7.43428,15.0863 7.22369,15.2849 z M 871.44154,388.5206 c -0.14148,0.1334 -9.77301,-5.473 -9.96588,-5.4483 -0.19287,0.025 -8.09599,7.8822 -8.26659,7.7889 -0.17059,-0.093 2.1851,-10.986 2.10195,-11.1618 -0.0831,-0.1757 -9.99817,-5.264 -9.96212,-5.4551 0.0361,-0.1911 11.12348,-1.3167 11.26496,-1.4501 0.14148,-0.1334 1.91678,-11.1355 2.10966,-11.1602 0.19287,-0.025 4.68959,10.1721 4.86018,10.2655 0.17059,0.093 11.18281,-1.6181 11.26596,-1.4423 0.0832,0.1758 -8.22515,7.6034 -8.2612,7.7945 -0.0361,0.1911 4.99457,10.1355 4.85308,10.2689 z m -48.57141,207.8571 c -0.14148,0.1334 -9.77301,-5.4729 -9.96588,-5.4482 -0.19287,0.025 -8.096,7.8822 -8.26659,7.7888 -0.17059,-0.093 2.1851,-10.9859 2.10195,-11.1617 -0.0831,-0.1758 -9.99817,-5.264 -9.96212,-5.4551 0.0361,-0.1911 11.12348,-1.3167 11.26496,-1.4501 0.14148,-0.1334 1.91678,-11.1355 2.10966,-11.1602 0.19287,-0.025 4.68959,10.1721 4.86018,10.2655 0.17059,0.093 11.18281,-1.6181 11.26596,-1.4423 0.0831,0.1757 -8.22515,7.6034 -8.26121,7.7945 -0.036,0.1911 4.99458,10.1354 4.85309,10.2688 z M 802.15584,483.5206 c -0.14148,0.1334 -9.77301,-5.473 -9.96589,-5.4483 -0.19287,0.025 -8.09599,7.8822 -8.26658,7.7889 -0.17059,-0.093 2.18509,-10.986 2.10194,-11.1618 -0.0831,-0.1757 -9.99817,-5.264 -9.96211,-5.4551 0.036,-0.1911 11.12347,-1.3167 11.26495,-1.4501 0.14149,-0.1334 1.91679,-11.1355 2.10966,-11.1602 0.19287,-0.025 4.68959,10.1721 4.86018,10.2655 0.17059,0.093 11.18281,-1.6181 11.26596,-1.4423 0.0832,0.1758 -8.22515,7.6034 -8.2612,7.7945 -0.036,0.1911 4.99457,10.1355 4.85309,10.2689 z M 718.20651,210.20082 c -0.2252,0.21232 -15.55527,-8.71111 -15.86226,-8.6717 -0.30698,0.0394 -12.88603,12.54566 -13.15755,12.3971 -0.27152,-0.14856 3.47792,-17.48581 3.34557,-17.7656 -0.13234,-0.27978 -15.91364,-8.37852 -15.85625,-8.68265 0.0574,-0.30414 17.70473,-2.09572 17.92993,-2.30805 0.22519,-0.21232 3.05086,-17.72387 3.35784,-17.76328 0.30699,-0.0394 7.46421,16.19059 7.73574,16.33915 0.27152,0.14856 17.79917,-2.57544 17.93151,-2.29566 0.13235,0.27978 -13.09159,12.10206 -13.14898,12.40619 -0.0574,0.30414 7.94964,16.13217 7.72445,16.3445 z M 211.44158,464.2348 c -0.14149,0.1334 -9.77302,-5.473 -9.96589,-5.4482 -0.19287,0.025 -8.09599,7.8821 -8.26659,7.7888 -0.17059,-0.093 2.1851,-10.9859 2.10195,-11.1617 -0.0831,-0.1758 -9.99817,-5.2641 -9.96212,-5.4551 0.0361,-0.1911 11.12348,-1.3167 11.26496,-1.4501 0.14148,-0.1334 1.91678,-11.1355 2.10966,-11.1603 0.19287,-0.025 4.68959,10.1722 4.86018,10.2655 0.17059,0.093 11.18281,-1.6181 11.26596,-1.4423 0.0831,0.1758 -8.22515,7.6035 -8.2612,7.7945 -0.0361,0.1911 4.99457,10.1355 4.85309,10.2689 z m 54.28572,-82.8572 c -0.14149,0.1334 -9.77302,-5.473 -9.96589,-5.4482 -0.19287,0.025 -8.09599,7.8821 -8.26658,7.7888 -0.17059,-0.093 2.18509,-10.9859 2.10194,-11.1617 -0.0831,-0.1758 -9.99817,-5.264 -9.96212,-5.4551 0.0361,-0.1911 11.12348,-1.3167 11.26496,-1.4501 0.14149,-0.1334 1.91679,-11.1355 2.10966,-11.1603 0.19287,-0.025 4.68959,10.1722 4.86018,10.2655 0.17059,0.093 11.18281,-1.618 11.26596,-1.4423 0.0832,0.1758 -8.22515,7.6035 -8.2612,7.7946 -0.0361,0.191 4.99457,10.1354 4.85309,10.2688 z M 223.58444,269.949 c -0.14148,0.1334 -9.77301,-5.473 -9.96588,-5.4482 -0.19288,0.025 -8.096,7.8822 -8.26659,7.7888 -0.17059,-0.093 2.1851,-10.9859 2.10195,-11.1617 -0.0832,-0.1758 -9.99817,-5.264 -9.96212,-5.4551 0.036,-0.1911 11.12348,-1.3167 11.26496,-1.4501 0.14148,-0.1334 1.91678,-11.1355 2.10965,-11.1603 0.19288,-0.025 4.6896,10.1722 4.86019,10.2656 0.17059,0.093 11.18281,-1.6181 11.26596,-1.4424 0.0831,0.1758 -8.22515,7.6035 -8.26121,7.7946 -0.036,0.1911 4.99458,10.1354 4.85309,10.2688 z m 36.86781,-106.76627 c -0.19036,0.17948 -13.14864,-7.36337 -13.40813,-7.33005 -0.25949,0.0333 -10.89236,10.60466 -11.12187,10.47908 -0.22952,-0.12557 2.93982,-14.78049 2.82796,-15.01699 -0.11187,-0.2365 -13.45156,-7.08224 -13.40306,-7.33932 0.0485,-0.25708 14.96555,-1.77148 15.1559,-1.95096 0.19035,-0.17947 2.57884,-14.98172 2.83834,-15.01503 0.25949,-0.0333 6.30938,13.68566 6.53889,13.81124 0.22952,0.12557 15.04538,-2.17698 15.15725,-1.94049 0.11187,0.2365 -11.06613,10.22969 -11.11464,10.48677 -0.0485,0.25709 6.71971,13.63628 6.52936,13.81575 z m 224.56077,63.19483 c -0.14149,0.1334 -9.77302,-5.47299 -9.96589,-5.44823 -0.19287,0.0248 -8.09599,7.88216 -8.26658,7.78882 -0.17059,-0.0933 2.18509,-10.98593 2.10194,-11.16172 -0.0832,-0.17578 -9.99817,-5.26402 -9.96212,-5.45511 0.0361,-0.19108 11.12348,-1.31669 11.26496,-1.45009 0.14149,-0.1334 1.91679,-11.1355 2.10966,-11.16026 0.19287,-0.0248 4.68959,10.17217 4.86018,10.26551 0.17059,0.0933 11.18281,-1.61809 11.26596,-1.44231 0.0831,0.17578 -8.22515,7.60344 -8.2612,7.79453 -0.0361,0.19108 4.99457,10.13546 4.85309,10.26886 z M 122.70188,376.8171 c -0.25877,0.244 -17.87448,-10.0099 -18.22724,-9.9646 -0.35276,0.045 -14.807272,14.4162 -15.119276,14.2455 -0.312004,-0.1707 3.996457,-20.0929 3.844381,-20.4144 -0.152077,-0.3215 -18.286287,-9.6277 -18.220348,-9.9772 0.06594,-0.3495 20.344426,-2.4082 20.603194,-2.6521 0.258769,-0.244 3.505727,-20.3665 3.858483,-20.4117 0.352757,-0.045 8.577086,18.6045 8.889096,18.7752 0.312,0.1707 20.45294,-2.9594 20.60502,-2.6379 0.15208,0.3215 -15.04349,13.9064 -15.10943,14.2559 -0.0659,0.3495 9.13489,18.5374 8.87612,18.7813 z m -6.06094,252.5381 c -0.25877,0.244 -17.874478,-10.0099 -18.227235,-9.9646 -0.352756,0.045 -14.807273,14.4162 -15.119277,14.2455 -0.312004,-0.1707 3.996457,-20.0929 3.844381,-20.4144 -0.152077,-0.3215 -18.286287,-9.6277 -18.220348,-9.9772 0.06594,-0.3495 20.344426,-2.4082 20.603194,-2.6522 0.258769,-0.2439 3.505727,-20.3664 3.858483,-20.4117 0.352757,-0.045 8.577092,18.6046 8.889092,18.7753 0.31201,0.1707 20.45295,-2.9594 20.60502,-2.6379 0.15208,0.3215 -15.04349,13.9064 -15.10943,14.2559 -0.0659,0.3494 9.13489,18.5373 8.87612,18.7813 z m 159.60412,202.0305 c -0.25877,0.244 -17.87448,-10.0098 -18.22724,-9.9646 -0.35275,0.045 -14.80727,14.4162 -15.11927,14.2455 -0.31201,-0.1707 3.99645,-20.0929 3.84438,-20.4144 -0.15208,-0.3215 -18.28629,-9.6277 -18.22035,-9.9772 0.0659,-0.3495 20.34443,-2.4082 20.60319,-2.6521 0.25877,-0.244 3.50573,-20.3665 3.85849,-20.4117 0.35275,-0.045 8.57709,18.6045 8.88909,18.7752 0.312,0.1707 20.45295,-2.9594 20.60502,-2.6379 0.15208,0.3215 -15.04349,13.9064 -15.10943,14.2559 -0.0659,0.3495 9.13489,18.5374 8.87612,18.7813 z m 548.44101,-64.3032 c -0.25877,0.244 -17.87448,-10.0099 -18.22724,-9.9646 -0.35275,0.045 -14.80727,14.4162 -15.11927,14.2455 -0.31201,-0.1707 3.99645,-20.0929 3.84438,-20.4144 -0.15208,-0.3215 -18.28629,-9.6277 -18.22035,-9.9772 0.0659,-0.3495 20.34442,-2.4082 20.60319,-2.6522 0.25877,-0.2439 3.50573,-20.3664 3.85849,-20.4117 0.35275,-0.045 8.57709,18.6046 8.88909,18.7753 0.312,0.1707 20.45294,-2.9594 20.60502,-2.638 0.15208,0.3215 -15.04349,13.9065 -15.10943,14.2559 -0.0659,0.3495 9.13489,18.5374 8.87612,18.7814 z M 501.87566,701.9884 c -0.21316,0.201 -14.72391,-8.2455 -15.01449,-8.2082 -0.29058,0.037 -12.19733,11.8752 -12.45434,11.7345 -0.25701,-0.1406 3.29204,-16.5512 3.16677,-16.8161 -0.12527,-0.2648 -15.06313,-7.9307 -15.00881,-8.2186 0.0543,-0.2879 16.75849,-1.9837 16.97165,-2.1847 0.21316,-0.201 2.88781,-16.7766 3.17839,-16.8139 0.29058,-0.037 7.06528,15.3253 7.32229,15.4659 0.25701,0.1406 16.84789,-2.4378 16.97316,-2.173 0.12527,0.2649 -12.39191,11.4553 -12.44623,11.7432 -0.0543,0.2879 7.52477,15.27 7.31161,15.4709 z M 870.66544,269.9716 c -0.25877,0.244 -17.87448,-10.0099 -18.22724,-9.9646 -0.35275,0.045 -14.80727,14.4162 -15.11927,14.2455 -0.31201,-0.1707 3.99645,-20.0929 3.84438,-20.4144 -0.15208,-0.3215 -18.28629,-9.6277 -18.22035,-9.9772 0.0659,-0.3495 20.34443,-2.4082 20.60319,-2.6522 0.25877,-0.2439 3.50573,-20.36638 3.85849,-20.41166 0.35275,-0.0453 8.57709,18.60456 8.88909,18.77526 0.312,0.1707 20.45294,-2.9594 20.60502,-2.638 0.15208,0.3215 -15.04349,13.9065 -15.10943,14.2559 -0.0659,0.3495 9.13489,18.5374 8.87612,18.7814 z M 478.78254,138.09485 c -0.25877,0.24398 -17.87448,-10.00989 -18.22724,-9.96461 -0.35276,0.0453 -14.80727,14.41617 -15.11928,14.24546 -0.312,-0.17071 3.99646,-20.09287 3.84438,-20.41437 -0.15207,-0.32149 -18.28628,-9.62771 -18.22034,-9.97719 0.0659,-0.34949 20.34442,-2.40819 20.60319,-2.65217 0.25877,-0.24398 3.50573,-20.36642 3.85848,-20.4117 0.35276,-0.0453 8.57709,18.60453 8.8891,18.77524 0.312,0.17071 20.45294,-2.95943 20.60502,-2.63793 0.15207,0.3215 -15.0435,13.90641 -15.10943,14.2559 -0.0659,0.34948 9.13488,18.53739 8.87612,18.78137 z" />
  </g>
</svg>
